<svg xmlns="http://www.w3.org/2000/svg" x="0px" y="0px"
width="48" height="48"
viewBox="0 0 172 172"
style=" fill:#000000;"><g fill="none" fill-rule="nonzero" stroke="none" stroke-width="1" stroke-linecap="butt" stroke-linejoin="miter" stroke-miterlimit="10" stroke-dasharray="" stroke-dashoffset="0" font-family="none" font-weight="none" font-size="none" text-anchor="none" style="mix-blend-mode: normal"><path d="M0,172v-172h172v172z" fill="none"></path><g fill="#555555"><path d="M86,121.83333c-20.06667,0 -35.83333,-15.76667 -35.83333,-35.83333c0,-20.06667 15.76667,-35.83333 35.83333,-35.83333c20.06667,0 35.83333,15.76667 35.83333,35.83333c0,20.06667 -15.76667,35.83333 -35.83333,35.83333zM86,64.5c-12.18333,0 -21.5,9.31667 -21.5,21.5c0,12.18333 9.31667,21.5 21.5,21.5c12.18333,0 21.5,-9.31667 21.5,-21.5c0,-12.18333 -9.31667,-21.5 -21.5,-21.5z"></path><path d="M121.83333,157.66667h-35.83333c-39.41667,0 -71.66667,-32.25 -71.66667,-71.66667c0,-39.41667 32.25,-71.66667 71.66667,-71.66667c39.41667,0 71.66667,32.25 71.66667,71.66667v10.75c0,13.61667 -11.46667,25.08333 -25.08333,25.08333c-13.61667,0 -25.08333,-11.46667 -25.08333,-25.08333v-10.75h14.33333v10.75c0,5.73333 5.01667,10.75 10.75,10.75c5.73333,0 10.75,-5.01667 10.75,-10.75v-10.75c0,-31.53333 -25.8,-57.33333 -57.33333,-57.33333c-31.53333,0 -57.33333,25.8 -57.33333,57.33333c0,31.53333 25.8,57.33333 57.33333,57.33333h35.83333z"></path></g></g></svg>