<svg xmlns="http://www.w3.org/2000/svg" x="0px" y="0px"
width="30" height="30"
viewBox="0 0 172 172"
style=" fill:#000000;"><g fill="none" fill-rule="nonzero" stroke="none" stroke-width="1" stroke-linecap="butt" stroke-linejoin="miter" stroke-miterlimit="10" stroke-dasharray="" stroke-dashoffset="0" font-family="none" font-weight="none" font-size="none" text-anchor="none" style="mix-blend-mode: normal"><path d="M0,172v-172h172v172z" fill="none"></path><g fill="#555555"><path d="M86,17.2c-37.92928,0 -68.8,30.87072 -68.8,68.8c0,37.92928 30.87072,68.8 68.8,68.8c37.92928,0 68.8,-30.87072 68.8,-68.8c0,-37.92928 -30.87072,-68.8 -68.8,-68.8zM86,28.66667c31.73223,0 57.33333,25.6011 57.33333,57.33333c0,31.73223 -25.6011,57.33333 -57.33333,57.33333c-31.73223,0 -57.33333,-25.6011 -57.33333,-57.33333c0,-31.73223 25.6011,-57.33333 57.33333,-57.33333zM79.04609,51.6l1.15339,45.86667h11.60104l1.15339,-45.86667zM86.02239,107.84714c-4.75293,0 -7.59218,2.53566 -7.59218,6.86432c0,4.24841 2.84498,6.77474 7.59218,6.77474c4.7128,0 7.5362,-2.52634 7.5362,-6.77474c0,-4.32866 -2.8234,-6.86432 -7.5362,-6.86432z"></path></g></g></svg>